<svg width="688" height="222" viewBox="0 0 688 222" fill="none" xmlns="http://www.w3.org/2000/svg">
<g clip-path="url(#clip0_11_3)">
<path d="M632.48 140.96V136.78H638.64V134.74H632.48V131.46H640.22V129.42H630.3V143H640.34V140.96H632.48ZM646.772 143.32C649.852 143.32 651.872 141.66 651.872 139.42C651.872 137.04 650.512 136.12 647.792 135C645.952 134.24 645.052 133.86 645.052 132.66C645.052 131.66 646.032 131.12 647.512 131.1C648.972 131.1 650.292 131.66 651.092 132.4V130.06C650.112 129.4 648.972 129 647.712 129.02C644.852 129.02 642.812 130.52 642.812 132.66C642.812 135.04 644.132 135.98 646.812 137.1C648.652 137.86 649.632 138.36 649.632 139.4C649.632 140.5 648.852 141.26 646.772 141.26C645.152 141.26 643.452 140.64 642.232 139.68V141.92C643.012 142.6 644.532 143.32 646.772 143.32ZM661.373 143.3C664.433 143.3 665.833 142.26 666.153 142.08V139.74C664.993 140.72 663.153 141.24 661.373 141.24C658.073 141.24 656.133 139.06 656.133 136.2C656.133 133.36 658.073 131.14 661.373 131.14C663.753 131.14 665.653 132.4 665.773 132.6V130.3C665.073 129.82 663.613 129.1 661.373 129.1C656.913 129.04 653.813 132.32 653.873 136.2C653.813 140.08 656.913 143.36 661.373 143.3Z" fill="white"/>
<rect x="609" y="97" width="78" height="78" rx="15" stroke="white" stroke-width="2"/>
<path d="M415.2 217.3C416.88 217.3 417.98 216.64 418.66 215.94L418.64 217H420.82V206.66H418.68V207.66C417.96 206.94 416.7 206.36 415.2 206.36C412.04 206.36 409.8 208.82 409.8 211.84C409.8 214.86 412.04 217.3 415.2 217.3ZM415.36 215.38C413.42 215.38 411.96 213.78 411.96 211.82C411.96 209.86 413.42 208.28 415.36 208.28C417.28 208.28 418.8 209.58 418.8 211.82C418.8 214.08 417.28 215.38 415.36 215.38ZM426.878 217H429.038V208.42H433.038V206.66H422.838V208.42H426.878V217ZM439.028 217.3C440.708 217.3 441.808 216.64 442.488 215.94L442.468 217H444.648V206.66H442.508V207.66C441.788 206.94 440.528 206.36 439.028 206.36C435.868 206.36 433.628 208.82 433.628 211.84C433.628 214.86 435.868 217.3 439.028 217.3ZM439.188 215.38C437.248 215.38 435.788 213.78 435.788 211.82C435.788 209.86 437.248 208.28 439.188 208.28C441.108 208.28 442.628 209.58 442.628 211.82C442.628 214.08 441.108 215.38 439.188 215.38ZM447.866 217H450.026V212.48L454.186 217H456.886L451.586 211.32L456.526 206.66H453.826L450.026 210.44V206.66H447.866V217ZM462.29 217.3C463.97 217.3 465.07 216.64 465.75 215.94L465.73 217H467.91V206.66H465.77V207.66C465.05 206.94 463.79 206.36 462.29 206.36C459.13 206.36 456.89 208.82 456.89 211.84C456.89 214.86 459.13 217.3 462.29 217.3ZM462.45 215.38C460.51 215.38 459.05 213.78 459.05 211.82C459.05 209.86 460.51 208.28 462.45 208.28C464.37 208.28 465.89 209.58 465.89 211.82C465.89 214.08 464.37 215.38 462.45 215.38Z" fill="white"/>
<path d="M61.6996 217H63.8596V208.42H69.3596V217H71.5196V206.66H61.6996V217ZM79.647 217.3C82.667 217.3 83.787 216.24 83.787 216.24V214.3C83.767 214.3 82.227 215.38 79.687 215.38C77.347 215.38 76.227 213.94 75.987 212.34H84.247V211.34C84.247 208.84 82.507 206.36 79.507 206.36C76.307 206.36 73.927 208.72 73.927 211.82C73.927 214.8 76.007 217.3 79.647 217.3ZM76.087 210.66C76.207 209.86 76.967 208.12 79.227 208.12C81.487 208.12 82.007 209.86 82.087 210.66H76.087ZM86.641 221.24H88.801V215.9C89.481 216.64 90.581 217.3 92.281 217.3C95.441 217.3 97.681 214.86 97.681 211.84C97.681 208.82 95.441 206.36 92.281 206.36C90.781 206.36 89.521 206.94 88.801 207.66V206.66H86.641V221.24ZM92.321 215.38C90.381 215.38 88.681 214.08 88.681 211.84C88.681 209.58 90.381 208.28 92.321 208.28C94.261 208.28 95.581 209.88 95.581 211.84C95.581 213.8 94.261 215.38 92.321 215.38ZM104.999 217.3C108.019 217.3 109.139 216.24 109.139 216.24V214.3C109.119 214.3 107.579 215.38 105.039 215.38C102.699 215.38 101.579 213.94 101.339 212.34H109.599V211.34C109.599 208.84 107.859 206.36 104.859 206.36C101.659 206.36 99.2785 208.72 99.2785 211.82C99.2785 214.8 101.359 217.3 104.999 217.3ZM101.439 210.66C101.559 209.86 102.319 208.12 104.579 208.12C106.839 208.12 107.359 209.86 107.439 210.66H101.439ZM110.587 219.5H112.747V217H120.307V219.5H122.467V215.24H120.847V206.66H113.087C113.087 210.54 112.307 213.84 111.947 215.24H110.587V219.5ZM114.047 215.24C114.427 213.48 114.927 210.4 115.027 208.7H118.667V215.24H114.047ZM125.059 217H130.339C133.079 217 134.159 215.7 134.159 214.1C134.159 212.86 133.399 211.62 131.599 211.52C132.939 211.4 133.639 210.6 133.639 209.3C133.639 207.78 132.699 206.66 130.319 206.66H125.059V217ZM127.199 210.84V208.42H129.999C130.979 208.42 131.519 208.8 131.519 209.62C131.519 210.44 130.939 210.82 129.979 210.82C128.859 210.82 127.199 210.84 127.199 210.84ZM127.199 215.24V212.6H130.399C131.439 212.6 132.019 213.1 132.019 213.92C132.019 214.74 131.459 215.24 130.419 215.24H127.199ZM136.465 217H138.745L143.925 209.46V217H146.085V206.66H143.785L138.625 214.18V206.66H136.465V217ZM148.478 217H150.858L154.198 211.94V217H156.158V211.94L159.498 217H161.878L158.018 211.32L161.878 206.66H159.498L156.158 210.98V206.66H154.198V210.98L150.858 206.66H148.478L152.338 211.32L148.478 217ZM168.006 217.3C171.026 217.3 172.146 216.24 172.146 216.24V214.3C172.126 214.3 170.586 215.38 168.046 215.38C165.706 215.38 164.586 213.94 164.346 212.34H172.606V211.34C172.606 208.84 170.866 206.36 167.866 206.36C164.666 206.36 162.286 208.72 162.286 211.82C162.286 214.8 164.366 217.3 168.006 217.3ZM164.446 210.66C164.566 209.86 165.326 208.12 167.586 208.12C169.846 208.12 170.366 209.86 170.446 210.66H164.446ZM175 217H177.14V212.6H182.44V217H184.58V206.66H182.44V210.84H177.14V206.66H175V217ZM187.774 217H190.054L195.234 209.46V217H197.394V206.66H195.094L189.934 214.18V206.66H187.774V217ZM205.506 217.3C208.526 217.3 209.646 216.24 209.646 216.24V214.3C209.626 214.3 208.086 215.38 205.546 215.38C203.206 215.38 202.086 213.94 201.846 212.34H210.106V211.34C210.106 208.84 208.366 206.36 205.366 206.36C202.166 206.36 199.786 208.72 199.786 211.82C199.786 214.8 201.866 217.3 205.506 217.3ZM201.946 210.66C202.066 209.86 202.826 208.12 205.086 208.12C207.346 208.12 207.866 209.86 207.946 210.66H201.946Z" fill="white"/>
<path d="M617.721 217H619.881V208.42H625.381V217H627.541V206.66H617.721V217ZM635.348 217.3C637.028 217.3 638.128 216.64 638.808 215.94L638.788 217H640.968V206.66H638.828V207.66C638.108 206.94 636.848 206.36 635.348 206.36C632.188 206.36 629.948 208.82 629.948 211.84C629.948 214.86 632.188 217.3 635.348 217.3ZM635.508 215.38C633.568 215.38 632.108 213.78 632.108 211.82C632.108 209.86 633.568 208.28 635.508 208.28C637.428 208.28 638.948 209.58 638.948 211.82C638.948 214.08 637.428 215.38 635.508 215.38ZM644.626 221.16H646.926L653.906 206.66H651.646L648.446 213.52L645.246 206.66H642.986L647.326 215.8L644.626 221.16ZM658.745 217.3C661.385 217.3 663.245 216.4 663.245 214.28C663.245 213.32 662.645 211.94 660.765 211.54C661.925 211.42 662.885 210.34 662.885 209.18C662.885 207.4 661.065 206.36 658.745 206.36C657.525 206.36 656.225 206.6 655.405 207.14V209.1C655.845 208.78 657.285 208.28 658.505 208.28C659.905 208.28 660.825 208.58 660.825 209.42C660.825 210.36 660.025 210.7 658.965 210.7H657.365V212.46H659.265C660.245 212.46 661.125 213 661.125 213.92C661.125 215.1 659.865 215.4 658.625 215.4C656.865 215.4 655.105 214.32 655.105 214.32V216.32C655.825 216.9 657.685 217.3 658.745 217.3ZM670.641 217.3C672.321 217.3 673.421 216.64 674.101 215.94L674.081 217H676.261V206.66H674.121V207.66C673.401 206.94 672.141 206.36 670.641 206.36C667.481 206.36 665.241 208.82 665.241 211.84C665.241 214.86 667.481 217.3 670.641 217.3ZM670.801 215.38C668.861 215.38 667.401 213.78 667.401 211.82C667.401 209.86 668.861 208.28 670.801 208.28C672.721 208.28 674.241 209.58 674.241 211.82C674.241 214.08 672.721 215.38 670.801 215.38Z" fill="white"/>
<path d="M130.34 47H132.88L135.84 36.52L138.82 47H141.34L145.56 33.42H143.08L140.08 44.26L137.06 33.42H134.62L131.62 44.26L128.6 33.42H126.12L130.34 47Z" fill="white"/>
<rect x="97" y="1" width="78" height="78" rx="15" stroke="white" stroke-width="2"/>
<path d="M412.44 143.32C415.52 143.32 417.54 141.66 417.54 139.42C417.54 137.04 416.18 136.12 413.46 135C411.62 134.24 410.72 133.86 410.72 132.66C410.72 131.66 411.7 131.12 413.18 131.1C414.64 131.1 415.96 131.66 416.76 132.4V130.06C415.78 129.4 414.64 129 413.38 129.02C410.52 129.02 408.48 130.52 408.48 132.66C408.48 135.04 409.8 135.98 412.48 137.1C414.32 137.86 415.3 138.36 415.3 139.4C415.3 140.5 414.52 141.26 412.44 141.26C410.82 141.26 409.12 140.64 407.9 139.68V141.92C408.68 142.6 410.2 143.32 412.44 143.32ZM426.821 129.42H420.441V143H422.621V138.34H426.761C429.521 138.34 431.621 136.56 431.621 133.88C431.621 131.2 429.541 129.42 426.821 129.42ZM426.661 136.34H422.621V131.46H426.661C428.141 131.46 429.381 132.44 429.381 133.92C429.381 135.38 428.141 136.34 426.661 136.34ZM431.619 143H434.159L435.459 139.78H441.999L443.299 143H445.839L439.799 129.42H437.659L431.619 143ZM436.279 137.74L438.739 131.96L441.179 137.74H436.279ZM453.662 143.3C456.722 143.3 458.122 142.26 458.442 142.08V139.74C457.282 140.72 455.442 141.24 453.662 141.24C450.362 141.24 448.422 139.06 448.422 136.2C448.422 133.36 450.362 131.14 453.662 131.14C456.042 131.14 457.942 132.4 458.062 132.6V130.3C457.362 129.82 455.902 129.1 453.662 129.1C449.202 129.04 446.102 132.32 446.162 136.2C446.102 140.08 449.202 143.36 453.662 143.3ZM463.324 140.96V136.78H469.484V134.74H463.324V131.46H471.064V129.42H461.144V143H471.184V140.96H463.324Z" fill="white"/>
<rect x="401" y="97" width="78" height="78" rx="15" stroke="white" stroke-width="2"/>
<path d="M32.42 143H34.96L36.26 139.78H42.8L44.1 143H46.64L40.6 129.42H38.46L32.42 143ZM37.08 137.74L39.54 131.96L41.98 137.74H37.08Z" fill="white"/>
<rect x="1" y="97" width="78" height="78" rx="15" stroke="white" stroke-width="2"/>
<path d="M135.44 143.32C138.52 143.32 140.54 141.66 140.54 139.42C140.54 137.04 139.18 136.12 136.46 135C134.62 134.24 133.72 133.86 133.72 132.66C133.72 131.66 134.7 131.12 136.18 131.1C137.64 131.1 138.96 131.66 139.76 132.4V130.06C138.78 129.4 137.64 129 136.38 129.02C133.52 129.02 131.48 130.52 131.48 132.66C131.48 135.04 132.8 135.98 135.48 137.1C137.32 137.86 138.3 138.36 138.3 139.4C138.3 140.5 137.52 141.26 135.44 141.26C133.82 141.26 132.12 140.64 130.9 139.68V141.92C131.68 142.6 133.2 143.32 135.44 143.32Z" fill="white"/>
<rect x="97" y="97" width="78" height="78" rx="15" stroke="white" stroke-width="2"/>
<path d="M230.72 129.42H225.8V143H230.72C235.22 143 238.1 140.14 238.1 136.2C238.1 132.24 235.38 129.42 230.72 129.42ZM230.56 140.94H227.98V131.46H230.54C234.08 131.46 235.84 133.26 235.84 136.2C235.74 139.46 233.7 140.94 230.56 140.94Z" fill="white"/>
<rect x="193" y="97" width="78" height="78" rx="15" stroke="white" stroke-width="2"/>
</g>
<defs>
<clipPath id="clip0_11_3">
<rect width="688" height="222" fill="white"/>
</clipPath>
</defs>
</svg>
